<svg xmlns="http://www.w3.org/2000/svg" fill="none" viewBox="0 0 354 214" height="214" width="354">
<path fill="url(#paint0_linear_361_36978)" d="M281.806 70.6718L266.437 45.0213L248.12 43.5142L245.981 53.1849L257.879 78.2892L281.806 70.6718Z"></path>
<path fill="#1E1E20" d="M257.879 78.6437C257.745 78.6437 257.621 78.5692 257.56 78.4415L245.666 53.3373C245.631 53.2663 245.623 53.1848 245.641 53.1103L247.78 43.4395C247.819 43.2657 247.982 43.1487 248.155 43.1629L266.472 44.6701C266.586 44.6807 266.689 44.7446 266.749 44.8403L282.118 70.4872C282.175 70.5794 282.186 70.6929 282.147 70.7957C282.108 70.8986 282.026 70.9766 281.923 71.0085L257.996 78.6259C257.961 78.6366 257.926 78.6437 257.89 78.6437H257.879ZM246.358 53.1422L258.067 77.8564L281.274 70.4694L266.231 45.3616L248.404 43.8934L246.358 53.1422Z"></path>
<path stroke-width="0.5" stroke="white" fill="url(#paint1_linear_361_36978)" d="M233.163 4.87134C237.001 2.00289 242.297 1.18989 246.817 2.77563C248.604 3.40259 250.257 4.40031 251.67 5.66333V5.66235C253.984 7.73321 257.336 7.95548 260.078 6.55688C260.085 6.55336 260.092 6.55003 260.098 6.54712C260.104 6.54371 260.109 6.54201 260.114 6.53931C260.125 6.53395 260.131 6.53022 260.135 6.52856V6.52954L260.146 6.52368C262.472 5.37297 265.339 5.57175 267.73 6.66528C270.122 7.76235 272.081 9.66362 273.681 11.7903C277.415 16.7574 279.316 23.0718 278.943 29.2717L278.918 29.7034L278.92 29.7014C278.754 31.8186 278.294 33.92 277.503 35.887L277.329 36.3049C276.517 38.1915 275.385 39.9493 273.906 41.3655C272.265 42.9356 270.609 43.1195 268.292 43.4114C263.215 44.0521 258.013 43.5489 253.11 42.0969C247.073 40.3064 241.489 37.1082 236.675 33.0422C231.855 28.9718 227.629 23.5873 227.305 17.3723C227.054 12.5901 229.325 7.73996 233.163 4.87134Z"></path>
<path fill="url(#paint2_linear_361_36978)" d="M260.812 52.6032C259.1 55.5077 254.709 66.2175 241.482 63.4727C229.963 61.0789 231.658 37.2868 232.832 27.5344C232.832 27.5344 235.921 29.6161 243.868 28.5558C251.815 27.4919 250.142 36.6662 253.532 40.4075C256.922 44.1453 262.49 40.9465 262.49 40.9465C262.49 40.9465 265.905 36.4924 269.15 39.2089C271.948 41.553 272.721 50.9329 260.812 52.6068V52.6032Z"></path>
<path fill="#1E1E20" d="M245.619 64.2743C244.325 64.2743 242.924 64.1324 241.409 63.8168C229.7 61.384 231.263 37.6025 232.48 27.492C232.494 27.3679 232.572 27.2615 232.686 27.2118C232.799 27.1622 232.93 27.1728 233.03 27.2402C233.058 27.2579 236.14 29.2297 243.817 28.2012C249.325 27.4636 250.513 31.5383 251.563 35.1307C252.109 36.9996 252.676 38.9324 253.79 40.1629C256.768 43.4504 261.666 40.9786 262.251 40.663C262.563 40.2729 264.304 38.2302 266.478 37.9926C267.517 37.8756 268.493 38.1912 269.372 38.9288C270.766 40.0955 271.784 42.9503 270.929 45.9434C270.312 48.1031 268.202 51.8657 261.031 52.9261C260.903 53.1495 260.762 53.4084 260.606 53.6992C258.801 57.0256 254.871 64.2707 245.615 64.2707L245.619 64.2743ZM233.125 28.0913C231.941 38.2763 230.607 60.8485 241.555 63.1217C253.368 65.5757 258.006 57.0185 259.985 53.3623C260.184 52.997 260.357 52.6778 260.51 52.419C260.563 52.3268 260.659 52.2629 260.765 52.2487C267.68 51.277 269.677 47.7591 270.252 45.7484C270.996 43.1418 270.163 40.5105 268.922 39.4749C268.198 38.8685 267.404 38.6061 266.563 38.6983C264.514 38.9217 262.79 41.1346 262.772 41.1559C262.744 41.1914 262.709 41.2233 262.67 41.2481C262.613 41.28 256.815 44.5462 253.272 40.6381C252.048 39.287 251.46 37.2727 250.889 35.3293C249.825 31.6873 248.814 28.2438 243.917 28.9034C237.587 29.751 234.288 28.6339 233.125 28.0913Z"></path>
<path fill="#1E1E20" d="M261.312 49.3121C261.259 49.3121 261.209 49.3015 261.16 49.2767C260.982 49.1916 260.908 48.9788 260.996 48.8015C261.791 47.1595 263.401 45.9644 265.202 45.6772C265.394 45.6453 265.578 45.78 265.607 45.9715C265.639 46.1666 265.507 46.3474 265.312 46.3793C263.738 46.6311 262.326 47.6773 261.631 49.1135C261.571 49.2412 261.443 49.3121 261.312 49.3121Z"></path>
<path stroke="white" fill="url(#paint3_linear_361_36978)" d="M300.222 72.9838C321.342 72.8252 339.722 81.6253 345.26 101.813C352.537 128.346 353.649 154.088 352.983 172.983C352.702 180.964 348.743 186.719 342.878 190.171C336.995 193.633 329.173 194.788 321.204 193.473C294.551 189.073 277.739 185.778 267.594 183.584C262.521 182.487 259.116 181.665 256.981 181.119C255.914 180.845 255.164 180.641 254.683 180.505C254.519 180.459 254.387 180.42 254.283 180.39L253.627 176.457L253.572 176.135L253.256 176.055L199.746 162.491L199.668 162.47L199.587 162.476L179.403 163.954C180.933 154.023 183.582 140.963 187.105 128.6C190.708 115.961 195.206 104.113 200.315 97.0629V97.0619C208.234 86.1319 217.825 76.7943 231.076 75.7347C255.282 73.7997 275.636 73.1681 300.222 72.9838Z"></path>
<path fill="#1E1E20" d="M327.49 194.853C325.383 194.853 323.231 194.679 321.064 194.321C268.33 185.615 253.876 181.168 253.734 181.122C253.606 181.082 253.514 180.973 253.489 180.841L252.819 176.827L199.589 163.333L178.836 164.851C178.729 164.858 178.623 164.819 178.549 164.738C178.474 164.66 178.442 164.55 178.46 164.443C181.208 146.283 188.755 111.55 199.621 96.5563C205.951 87.8218 216.093 76.0729 231.005 74.8778C256.61 72.8316 277.189 72.2961 300.212 72.1223C311.294 72.0372 321.262 74.4274 329.018 79.027C337.639 84.1407 343.381 91.7263 346.083 101.581C353.605 129.009 354.452 155.563 353.839 173.008C353.612 179.501 350.98 184.987 346.228 188.874C341.494 192.75 334.77 194.842 327.49 194.842V194.853ZM254.156 180.508C256.081 181.072 271.88 185.48 321.181 193.622C330.635 195.183 339.831 193.207 345.782 188.338C350.367 184.583 352.91 179.277 353.13 172.993C353.743 155.599 352.899 129.122 345.399 101.78C340.349 83.3676 324.11 72.8422 300.804 72.8422C300.609 72.8422 300.414 72.8422 300.219 72.8422C277.214 73.016 256.649 73.5479 231.066 75.5941C219.785 76.4949 210.263 83.091 200.199 96.9819C189.5 111.745 182.024 145.907 179.233 164.117L199.599 162.628C199.638 162.628 199.674 162.628 199.713 162.638L253.223 176.203C253.358 176.238 253.461 176.348 253.485 176.486L254.159 180.512L254.156 180.508Z"></path>
<path fill="white" d="M229.888 151.691C229.718 151.691 229.569 151.57 229.541 151.396L221.803 107.16C221.771 106.968 221.898 106.784 222.09 106.748C222.281 106.713 222.466 106.844 222.501 107.036L230.239 151.272C230.271 151.464 230.144 151.648 229.952 151.684C229.931 151.687 229.91 151.691 229.892 151.691H229.888Z"></path>
<path fill="white" d="M257.202 73.7247L263.589 85.7928L257.773 96.7012C257.773 96.7012 266.66 142.509 266.348 142.268C266.032 142.027 249.605 142.268 249.605 142.268L254.634 96.7012L251.045 85.7928L257.202 73.7247Z"></path>
<path fill="url(#paint4_linear_361_36978)" d="M280.536 60.9015L257.772 71.622L252.63 67.7565L244.761 77.8174L251.045 91.6338L257.879 78.289L263.893 93.2792L289.657 73.3277L280.536 60.9015Z"></path>
<path fill="white" d="M263.893 93.6341C263.861 93.6341 263.83 93.6305 263.801 93.6199C263.695 93.5915 263.606 93.5135 263.564 93.4107L261.72 88.8111C261.645 88.6302 261.734 88.4246 261.918 88.3501C262.099 88.2792 262.305 88.3643 262.379 88.5487L264.049 92.712L289.168 73.257L280.423 61.345L257.925 71.9413C257.804 71.9981 257.666 71.9839 257.56 71.9023L252.694 68.2496L245.172 77.8637L251.063 90.8183L251.896 89.187C251.985 89.0132 252.198 88.9423 252.375 89.0345C252.549 89.1232 252.62 89.336 252.527 89.5133L251.357 91.7971C251.293 91.9177 251.173 91.9957 251.035 91.9886C250.9 91.9886 250.776 91.9035 250.719 91.7794L244.435 77.963C244.382 77.8424 244.396 77.7005 244.477 77.5977L252.347 67.5404C252.467 67.3879 252.684 67.3595 252.84 67.4765L257.811 71.2108L280.38 60.5825C280.533 60.5116 280.717 60.5577 280.816 60.6924L289.937 73.1187C290.051 73.2747 290.023 73.4911 289.87 73.6081L264.106 93.5631C264.042 93.6128 263.968 93.6376 263.89 93.6376L263.893 93.6341Z"></path>
<path fill="white" d="M266.348 142.619C266.153 142.619 265.993 142.46 265.993 142.265C265.993 142.069 266.153 141.91 266.348 141.91L321.847 141.857C322.042 141.857 322.202 142.016 322.202 142.211C322.202 142.406 322.042 142.566 321.847 142.566L266.348 142.619Z"></path>
<path fill="white" d="M304.236 142.566C304.062 142.566 303.909 142.438 303.885 142.261L299.622 112.646C299.594 112.451 299.728 112.273 299.923 112.245C300.118 112.216 300.296 112.351 300.324 112.546L304.587 142.161C304.615 142.357 304.48 142.534 304.285 142.562C304.268 142.562 304.25 142.566 304.236 142.566Z"></path>
<path fill="white" d="M274.494 185.838C274.299 185.838 274.14 185.678 274.14 185.483V142.211C274.14 142.016 274.299 141.857 274.494 141.857C274.689 141.857 274.849 142.016 274.849 142.211V185.483C274.849 185.678 274.689 185.838 274.494 185.838Z"></path>
<path stroke-width="0.5" stroke="white" fill="url(#paint5_linear_361_36978)" d="M80.0703 13.6703C85.1153 11.4285 90.5059 9.90652 95.8945 10.2474L96.416 10.2865C101.972 10.767 107.525 13.4738 110.83 18.3793L110.987 18.6127C113.196 22.0306 114.122 26.5088 113.419 30.5736L113.415 30.597L113.416 30.6205C113.503 35.6912 111.22 40.5621 108.478 44.764C105.114 49.9153 100.918 54.5311 95.7627 57.2914C90.6092 60.0506 84.4123 60.7727 79.1621 58.3412C75.0947 56.4577 71.8597 52.867 69.1006 49.0043C66.0876 44.7854 63.4685 39.9183 63.3916 34.6166C63.3217 29.7056 65.509 24.9587 68.6641 21.4457C71.8229 17.9324 75.8772 15.5319 80.0703 13.6703Z"></path>
<path stroke-width="0.5" stroke="white" fill="url(#paint6_linear_361_36978)" d="M45.4141 2.1582C46.2009 0.745226 48.0236 0.0935974 49.6963 0.28125C51.3699 0.469108 52.9053 1.33623 54.3506 2.31152H54.3516C61.877 7.37442 67.5088 15.1594 70.0566 23.8564L70.0781 23.9307L70.1377 23.9795C71.6819 25.245 72.9702 26.7314 73.8398 28.5303L74.0078 28.8945C75.1808 31.5563 75.2867 34.5968 74.8789 37.5146C74.0499 43.4546 71.1228 49.0834 66.7354 53.1758C62.348 57.268 56.5334 59.7977 50.5479 60.2158H50.5469C48.5495 60.3572 46.4185 60.1651 45.1133 58.8066V58.8057C43.8675 57.5132 43.7131 55.4142 44.3154 53.6484C44.9187 51.8801 46.1418 50.3933 47.374 48.9082L47.0459 48.5391C42.2881 51.6128 36.1615 52.4847 30.7314 50.8604C28.5791 50.2154 26.5141 49.1701 25.0635 47.5059C23.6129 45.8414 22.872 43.4953 23.4873 41.4189C24.2099 38.9831 26.5517 37.37 28.9414 36.2246V36.2256C33.3834 34.0996 38.3047 32.9727 43.2324 32.9551L43.248 32.4561C37.8417 32.0891 32.595 29.7358 28.71 25.96L28.3379 25.5898C26.9474 24.1712 25.7333 22.4938 25.5674 20.5869C25.3839 18.4765 26.5803 16.3949 28.3184 15.0947L28.6729 14.8457C30.5996 13.5773 32.9823 13.138 35.332 13.0889C41.3438 12.9662 47.3718 15.3206 51.707 19.4873L52.0889 19.168C49.6615 15.5393 47.5838 11.674 45.8984 7.64258C45.5195 6.73674 45.1714 5.76637 45.0332 4.81641C44.8954 3.86822 44.9689 2.95833 45.4141 2.1582Z"></path>
<path fill="url(#paint7_linear_361_36978)" d="M85.5996 52.2985L83.4008 81.4775C80.4468 83.2825 108.768 83.584 106.686 81.5697L105.509 59.0187L85.5996 52.2985Z"></path>
<path fill="#1E1E20" d="M96.0471 83.3C92.1143 83.3 88.1602 83.1227 86.1246 82.8957C83.2414 82.5765 82.9223 82.2006 82.8407 81.8425C82.8123 81.7183 82.8123 81.4985 83.057 81.2857L85.2416 52.2698C85.2486 52.1599 85.3089 52.0606 85.3976 52.0003C85.4898 51.94 85.6033 51.9258 85.7061 51.9613L105.615 58.6815C105.753 58.7276 105.849 58.8553 105.856 59.0007L107.03 81.4311C107.211 81.6829 107.136 81.9134 107.094 82.0091C106.636 82.9773 101.36 83.3 96.0401 83.3H96.0471ZM83.6599 81.7183C84.9259 82.2999 92.1888 82.7858 99.5367 82.5411C104.172 82.385 105.973 81.995 106.388 81.7503C106.356 81.6971 106.339 81.6403 106.335 81.5871L105.168 59.2773L85.9189 52.7805L83.7556 81.502C83.7486 81.5836 83.7166 81.6616 83.6599 81.7183Z"></path>
<path fill="url(#paint8_linear_361_36978)" d="M82.1099 46.7378C84.0285 45.947 86.1385 46.7166 87.706 47.901C88.4613 48.4684 88.8975 49.3727 89.926 49.199C90.7381 49.0642 91.3941 48.206 91.5785 47.4506C91.841 46.3761 91.5182 45.2519 91.1991 44.1916C90.5643 42.0957 89.933 40.0034 89.2983 37.9075C89.0713 37.1593 88.8514 36.3259 89.1919 35.6237C89.7025 34.5705 91.1069 34.4215 92.2701 34.3471C98.4548 33.9428 104.491 31.5348 109.253 27.5701C118.665 41.3936 119.577 62.7671 113.899 65.2318C104.281 69.4023 91.8268 59.5719 90.6494 58.7775C89.8018 58.2066 88.7096 58.242 87.6918 58.1889C85.7307 58.086 83.7483 57.5647 82.1525 56.4193C80.5531 55.2738 79.3828 53.4581 79.2835 51.4934C79.1842 49.5323 80.2942 47.4897 82.1099 46.7378Z"></path>
<path fill="#1E1E20" d="M108.75 66.5896C103.608 66.5896 97.4441 64.1214 90.8408 59.341C90.6635 59.2133 90.5323 59.1176 90.4543 59.0644C89.7982 58.6246 88.9223 58.5892 88.0712 58.5537C87.9364 58.5466 87.8052 58.5431 87.674 58.536C85.4398 58.4189 83.461 57.7841 81.9467 56.7025C80.1558 55.4188 79.0281 53.4789 78.9324 51.5072C78.8224 49.3262 80.1026 47.1807 81.9786 46.4076C83.7624 45.67 85.9292 46.1097 87.9222 47.6169C88.1527 47.7907 88.3513 47.9857 88.5393 48.1737C89.0322 48.6631 89.3372 48.9361 89.8692 48.8475C90.5252 48.7375 91.0784 48.007 91.238 47.3651C91.4863 46.3509 91.1565 45.2586 90.8621 44.2905L88.9613 38.0064C88.706 37.1588 88.4861 36.2652 88.8762 35.4637C89.5039 34.1658 91.2238 34.0558 92.2523 33.9884C98.3661 33.5913 104.324 31.2117 109.033 27.293C109.111 27.2292 109.211 27.2008 109.31 27.215C109.409 27.2292 109.498 27.2824 109.555 27.3675C116.803 38.0135 119.25 53.5215 116.991 61.3234C116.353 63.5327 115.332 64.9938 114.044 65.5541C112.441 66.2492 110.668 66.5932 108.75 66.5932V66.5896ZM83.7695 46.7658C83.273 46.7658 82.7588 46.8509 82.2446 47.0637C80.6381 47.7268 79.5423 49.5815 79.6381 51.4717C79.7267 53.2271 80.7445 54.9684 82.3581 56.1245C83.7624 57.1281 85.6136 57.7203 87.7095 57.8267C87.8371 57.8338 87.9683 57.8373 88.0995 57.8444C89.0464 57.8834 90.0287 57.9225 90.8479 58.4757C90.9295 58.5324 91.0678 58.6317 91.2558 58.7665C100.111 65.1746 108.104 67.3556 113.761 64.9016C114.846 64.4299 115.729 63.1249 116.307 61.1248C118.498 53.5534 116.151 38.5561 109.182 28.0874C104.409 31.9529 98.4299 34.297 92.2984 34.6977C91.1175 34.7757 89.9294 34.9211 89.5145 35.7758C89.2379 36.3467 89.4152 37.0595 89.6422 37.8043L91.543 44.0883C91.8444 45.0884 92.2239 46.3367 91.9296 47.5353C91.7203 48.39 90.9685 49.3865 89.9897 49.5496C89.0712 49.7021 88.5251 49.1595 88.0393 48.6772C87.8655 48.507 87.6882 48.3262 87.4967 48.1808C86.8477 47.6914 85.4008 46.7622 83.7731 46.7622L83.7695 46.7658Z"></path>
<path fill="#1E1E20" d="M89.7589 54.6638C89.6951 54.6638 89.6313 54.646 89.571 54.6106C88.1631 53.7346 86.4112 53.3587 84.7693 53.5786C84.5707 53.6034 84.3969 53.4687 84.3721 53.2736C84.3473 53.0786 84.482 52.9013 84.6771 52.8764C86.4821 52.6317 88.4042 53.0467 89.9504 54.0077C90.1171 54.1106 90.1667 54.3304 90.0639 54.4971C89.9965 54.6035 89.8795 54.6638 89.7625 54.6638H89.7589Z"></path>
<path stroke-width="0.5" stroke="white" fill="url(#paint9_linear_361_36978)" d="M20.3633 200.281L20.165 200.24C19.0665 200.01 17.8894 199.628 16.6611 199.135C3.28007 193.734 -3.12548 178.427 2.02637 164.936C10.006 144.039 21.8274 117.618 28.8418 102.281C32.6443 93.9699 40.3228 88.1044 49.334 86.5896C75.5231 82.1899 105.278 82.9934 122.207 84.0144H122.208C122.566 84.0355 122.929 84.0622 123.29 84.0906V84.0916C135.077 85.1021 145.523 92.1059 151.286 102.441L172.655 140.772L172.66 140.781L172.666 140.789V140.79C172.667 140.791 172.668 140.793 172.669 140.795C172.672 140.799 172.676 140.804 172.681 140.812C172.691 140.828 172.707 140.852 172.728 140.884C172.769 140.947 172.83 141.041 172.908 141.165C173.065 141.412 173.294 141.775 173.577 142.241C174.144 143.172 174.931 144.512 175.812 146.142C177.574 149.403 179.708 153.821 181.203 158.461C182.7 163.105 183.546 167.944 182.762 172.055C181.982 176.145 179.589 179.53 174.554 181.307L174.387 181.367V181.368C163.118 185.265 153.951 180.194 147.561 174.082C144.351 171.012 141.852 167.689 140.155 165.131C139.307 163.852 138.66 162.766 138.226 162C138.008 161.617 137.844 161.314 137.734 161.107C137.68 161.004 137.639 160.925 137.611 160.872C137.598 160.845 137.588 160.825 137.581 160.811C137.578 160.805 137.575 160.8 137.573 160.797C137.573 160.795 137.572 160.794 137.571 160.794V160.793L137.245 160.138L137.102 160.855C135.705 167.871 135.707 170.676 134.786 179.805C133.996 187.661 128.152 194.068 120.405 195.572L32.1943 212.686C25.0336 214.074 18.7899 207.675 20.3574 200.552L20.3633 200.525V200.281Z"></path>
<path fill="#1E1E20" d="M34.5226 204.069C29.9762 204.069 25.2171 202.988 19.9792 200.828C19.7983 200.754 19.7132 200.544 19.7877 200.364C19.8622 200.183 20.0714 200.098 20.2522 200.172C30.5897 204.438 39.0264 204.417 47.612 200.108C47.7893 200.02 47.9985 200.09 48.0872 200.264C48.1758 200.438 48.1049 200.651 47.9312 200.739C43.5125 202.959 39.1292 204.069 34.5297 204.069H34.5226Z"></path>
<path fill="#1E1E20" d="M44.0265 163.954C43.9982 163.954 43.9663 163.95 43.9379 163.943C43.7464 163.894 43.6329 163.702 43.6826 163.511L48.8389 143.442C48.8885 143.251 49.0836 143.141 49.2715 143.187C49.463 143.236 49.5765 143.428 49.5269 143.619L44.3705 163.688C44.328 163.848 44.1861 163.954 44.0265 163.954Z"></path>
<path stroke-width="0.321442" stroke="white" fill="url(#paint10_linear_361_36978)" d="M52.9689 205.969L21.5896 128.614L73.3151 107.632L104.694 184.987L52.9689 205.969Z"></path>
<path fill="url(#paint11_linear_361_36978)" d="M30.6201 168.624C30.6201 168.624 80.4138 137.548 93.1025 140.906C103.16 143.569 99.0319 148.623 99.0319 148.623C99.0319 148.623 104.38 150.19 101.287 156.804C101.287 156.804 104.287 160.056 100.855 163.347C100.855 163.347 103.635 166.17 98.8865 170.252C94.138 174.33 47.763 200.417 47.763 200.417L30.6201 168.621V168.624Z"></path>
<path fill="#1E1E20" d="M93.1492 150.187C93.0109 150.187 92.8797 150.105 92.8229 149.971C92.7449 149.79 92.83 149.581 93.0109 149.506C94.8621 148.719 96.9047 148.311 98.919 148.346C99.1141 148.346 99.2701 148.51 99.2701 148.705C99.2701 148.9 99.1105 149.056 98.9155 149.056H98.9119C96.9934 149.027 95.0536 149.41 93.291 150.159C93.2449 150.176 93.1988 150.187 93.1527 150.187H93.1492Z"></path>
<path fill="#1E1E20" d="M96.8413 158.857C96.7242 158.857 96.6107 158.801 96.5434 158.694C96.437 158.528 96.4866 158.311 96.6533 158.205C97.8697 157.428 99.2705 156.914 100.7 156.715C100.891 156.687 101.072 156.825 101.1 157.017C101.129 157.212 100.99 157.389 100.799 157.418C99.4691 157.602 98.1676 158.081 97.0363 158.801C96.976 158.84 96.9122 158.857 96.8448 158.857H96.8413Z"></path>
<path fill="#1E1E20" d="M98.0046 164.855C97.8628 164.855 97.7315 164.769 97.6748 164.631C97.6003 164.45 97.689 164.245 97.8734 164.17L100.228 163.227C100.409 163.156 100.615 163.241 100.689 163.425C100.764 163.606 100.675 163.812 100.491 163.886L98.1358 164.83C98.0933 164.847 98.0472 164.855 98.0046 164.855Z"></path>
<path fill="#1E1E20" d="M19.1282 174.667C18.997 174.667 18.8729 174.596 18.809 174.468C18.7204 174.291 18.7948 174.082 18.9686 173.993L30.4657 168.305C30.643 168.216 30.8523 168.291 30.9409 168.465C31.0296 168.642 30.9551 168.851 30.7813 168.94L19.2842 174.628C19.2346 174.653 19.1814 174.664 19.1282 174.664V174.667Z"></path>
<path stroke-width="0.5" stroke="white" fill="url(#paint12_linear_361_36978)" d="M75.0742 72.9941C76.6981 72.2943 78.4457 72.2548 80.2422 72.5176C81.5934 72.7153 82.9554 73.0806 84.3027 73.4541L85.6445 73.8242C92.2257 75.6022 99.1487 76.0942 105.915 75.2676C107.439 75.0817 108.978 74.84 110.491 74.7979C111.999 74.7559 113.456 74.9146 114.801 75.5176C118.037 76.9701 119.77 80.908 119.23 84.458C118.691 88.0064 116.226 91.0814 113.162 93.0293C110.099 94.9737 106.486 95.9066 102.86 96.4756C95.4499 97.6336 87.665 97.2478 80.5645 94.7705C79.0395 94.2385 77.1502 93.5649 75.374 92.71C73.7048 91.9065 72.1578 90.9532 71.1094 89.8242L70.9062 89.5957C69.874 88.3849 69.4766 86.6512 69.4434 84.8037C69.4116 83.0362 69.7154 81.199 70.0771 79.6914H70.082L70.1289 79.502C70.816 76.7327 72.5065 74.102 75.0742 72.9941Z"></path>
<path fill="url(#paint13_linear_361_36978)" d="M185.261 188.675L183.374 187.434C176.299 182.784 176.129 180.369 167.685 179.724L163.383 179.1C153.365 177.646 147.354 167.195 151.134 157.804C153.819 151.134 160.713 147.158 167.834 148.169C176.271 149.368 186.392 150.903 188.686 151.673L193.796 153.386L205.045 171.89L185.264 188.675H185.261Z"></path>
<path fill="#1E1E20" d="M185.262 189.03C185.195 189.03 185.128 189.012 185.067 188.973L183.181 187.732C181.209 186.434 179.79 185.327 178.542 184.352C177.099 183.224 175.957 182.334 174.581 181.657C174.404 181.572 174.333 181.359 174.418 181.182C174.506 181.004 174.716 180.933 174.893 181.022C176.336 181.731 177.503 182.643 178.978 183.795C180.216 184.763 181.62 185.859 183.571 187.139L185.234 188.232L204.583 171.816L193.561 153.68L188.575 152.01C187.358 151.602 183.745 150.928 177.833 150.01C177.638 149.978 177.507 149.797 177.538 149.605C177.567 149.41 177.748 149.279 177.943 149.311C183.89 150.237 187.543 150.921 188.798 151.34L193.908 153.052C193.986 153.081 194.054 153.134 194.1 153.205L205.349 171.71C205.441 171.858 205.409 172.05 205.274 172.163L185.493 188.948C185.425 189.005 185.344 189.033 185.262 189.033V189.03Z"></path>
<path fill="url(#paint14_linear_361_36978)" d="M249.605 142.264L218.405 144.456C207.805 144.456 197.333 146.779 187.726 151.258L196.514 154.503L179.58 183.848C176.736 188.778 182.406 194.441 186.619 190.831C186.715 190.749 186.811 190.661 186.907 190.572C185.864 195.657 192.797 196.962 196.308 192.526C195.354 197.182 201.681 199.509 205.915 194.523C204.372 199.87 211.908 201.977 215.355 196.484C218.994 190.686 230.186 171.578 230.186 171.578L253.134 176.543L249.605 142.268V142.264Z"></path>
<path fill="#1E1E20" d="M209.986 200.066C209.205 200.066 208.461 199.91 207.805 199.615C206.454 199.013 205.227 197.672 205.361 195.615C202.914 197.881 200.081 198.069 198.208 197.158C196.74 196.441 195.896 195.112 195.861 193.548C193.63 195.69 190.619 195.995 188.704 195.104C187.208 194.409 186.406 193.065 186.452 191.416C184.626 192.714 182.374 192.626 180.587 191.143C178.757 189.622 177.565 186.636 179.275 183.675L195.999 154.691L187.605 151.591C187.47 151.542 187.378 151.418 187.374 151.272C187.371 151.127 187.449 150.996 187.58 150.935C197.169 146.463 207.83 144.102 218.408 144.102L249.584 141.91C249.775 141.896 249.942 142.038 249.963 142.229L253.492 176.504C253.502 176.618 253.46 176.728 253.375 176.806C253.29 176.88 253.173 176.912 253.063 176.887L230.366 171.979C229.104 174.132 219.05 191.274 215.66 196.675C214.17 199.051 211.972 200.069 209.989 200.069L209.986 200.066ZM205.914 194.165C205.971 194.165 206.028 194.179 206.081 194.207C206.23 194.285 206.301 194.459 206.255 194.619C205.592 196.92 206.769 198.374 208.092 198.966C210.142 199.885 213.192 199.261 215.053 196.292C218.646 190.565 229.767 171.585 229.877 171.394C229.955 171.263 230.107 171.195 230.256 171.227L252.729 176.086L249.286 142.64L218.429 144.807C208.213 144.807 197.946 147.024 188.655 151.219L196.637 154.166C196.737 154.201 196.811 154.279 196.847 154.379C196.882 154.478 196.871 154.584 196.822 154.677L179.888 184.022C178.385 186.629 179.431 189.257 181.037 190.59C182.342 191.672 184.431 192.232 186.389 190.558C186.481 190.48 186.569 190.399 186.662 190.31C186.775 190.203 186.942 190.182 187.077 190.257C187.211 190.331 187.282 190.487 187.254 190.64C186.896 192.381 187.534 193.775 189.002 194.456C190.889 195.335 193.992 194.878 196.031 192.303C196.134 192.175 196.311 192.133 196.46 192.2C196.609 192.271 196.691 192.431 196.659 192.594C196.308 194.31 197.003 195.778 198.52 196.516C200.365 197.413 203.283 197.073 205.649 194.289C205.719 194.207 205.819 194.165 205.918 194.165H205.914Z"></path>
<path fill="url(#paint15_linear_361_36978)" d="M218.639 174.401L228.359 178.593C230.32 179.437 232.593 178.536 233.441 176.578C234.289 174.621 233.384 172.348 231.423 171.504L221.703 167.312C219.742 166.468 217.468 167.369 216.621 169.326C215.773 171.284 216.678 173.557 218.639 174.401Z"></path>
<path fill="#1E1E20" d="M229.884 179.263C229.327 179.263 228.76 179.153 228.217 178.919L218.497 174.727C217.461 174.281 216.663 173.458 216.248 172.412C215.834 171.365 215.851 170.22 216.295 169.184C217.217 167.05 219.703 166.064 221.841 166.986L231.561 171.178C232.597 171.624 233.395 172.447 233.81 173.493C234.225 174.539 234.207 175.685 233.764 176.72C233.076 178.313 231.519 179.267 229.884 179.267V179.263ZM218.781 174.075L228.501 178.267C230.278 179.033 232.349 178.213 233.115 176.437C233.487 175.575 233.501 174.625 233.154 173.752C232.806 172.88 232.143 172.199 231.281 171.826L221.561 167.635C219.784 166.869 217.713 167.688 216.947 169.465C216.575 170.326 216.561 171.277 216.908 172.149C217.256 173.022 217.919 173.702 218.781 174.075Z"></path>
<path fill="url(#paint16_linear_361_36978)" d="M214.77 180.972L224.49 185.164C226.451 186.008 228.724 185.107 229.572 183.15C230.419 181.192 229.515 178.919 227.554 178.075L217.834 173.883C215.872 173.039 213.599 173.94 212.752 175.898C211.904 177.855 212.809 180.128 214.77 180.972Z"></path>
<path fill="#1E1E20" d="M226.015 185.838C225.458 185.838 224.891 185.728 224.348 185.494L214.628 181.302C213.592 180.855 212.794 180.032 212.379 178.986C211.964 177.94 211.982 176.795 212.425 175.759C213.347 173.624 215.837 172.638 217.972 173.56L227.692 177.752C228.728 178.199 229.526 179.022 229.941 180.068C230.356 181.114 230.338 182.259 229.894 183.295C229.207 184.887 227.65 185.841 226.015 185.841V185.838ZM214.908 180.649L224.628 184.841C226.405 185.607 228.476 184.788 229.242 183.011C229.614 182.15 229.629 181.199 229.281 180.327C228.933 179.454 228.27 178.773 227.409 178.401L217.688 174.209C215.915 173.443 213.84 174.263 213.074 176.039C212.702 176.901 212.688 177.851 213.035 178.724C213.383 179.596 214.046 180.277 214.908 180.649Z"></path>
<path fill="url(#paint17_linear_361_36978)" d="M210.337 187.544L220.057 191.735C222.019 192.579 224.292 191.679 225.139 189.721C225.987 187.763 225.083 185.49 223.121 184.646L213.401 180.455C211.44 179.611 209.167 180.511 208.319 182.469C207.472 184.426 208.376 186.7 210.337 187.544Z"></path>
<path fill="#1E1E20" d="M221.583 192.409C221.026 192.409 220.459 192.299 219.916 192.065L210.196 187.873C209.16 187.427 208.363 186.604 207.948 185.558C207.533 184.511 207.55 183.366 207.994 182.33C208.916 180.196 211.402 179.21 213.54 180.132L223.261 184.324C224.296 184.77 225.094 185.593 225.509 186.639C225.924 187.685 225.906 188.831 225.463 189.866C224.775 191.459 223.218 192.413 221.583 192.413V192.409ZM210.476 187.221L220.197 191.413C221.973 192.179 224.044 191.359 224.81 189.583C225.183 188.721 225.197 187.771 224.849 186.898C224.502 186.026 223.839 185.345 222.977 184.972L213.256 180.781C211.483 180.015 209.409 180.834 208.643 182.611C208.27 183.472 208.256 184.423 208.604 185.295C208.951 186.168 209.614 186.848 210.476 187.221Z"></path>
<path fill="url(#paint18_linear_361_36978)" d="M206.688 192.92L214.703 196.378C216.32 197.076 218.192 196.331 218.891 194.718C219.59 193.104 218.845 191.228 217.228 190.533L209.213 187.076C207.596 186.377 205.724 187.122 205.025 188.735C204.326 190.349 205.071 192.225 206.688 192.92Z"></path>
<path fill="#1E1E20" d="M215.962 196.991C215.494 196.991 215.019 196.899 214.565 196.7L206.551 193.242C205.682 192.866 205.011 192.178 204.664 191.299C204.316 190.42 204.331 189.458 204.703 188.59C205.476 186.799 207.565 185.969 209.356 186.742L217.37 190.2C218.239 190.576 218.909 191.264 219.257 192.143C219.604 193.023 219.59 193.984 219.218 194.852C218.64 196.189 217.331 196.987 215.962 196.987V196.991ZM207.958 187.168C206.863 187.168 205.816 187.806 205.355 188.877C205.054 189.572 205.043 190.338 205.324 191.044C205.604 191.746 206.139 192.299 206.834 192.597L214.849 196.055C216.282 196.675 217.952 196.012 218.573 194.579C218.87 193.884 218.885 193.118 218.604 192.413C218.324 191.71 217.789 191.157 217.094 190.859L209.079 187.402C208.714 187.246 208.334 187.171 207.962 187.171L207.958 187.168Z"></path>
<path fill="url(#paint19_linear_361_36978)" d="M191.031 152.467L211.83 159.393C211.83 159.393 212.291 166.957 204.847 165.305C194.375 162.979 192.247 167.209 186.715 168.695C177.697 171.117 172.948 166.177 172.948 166.177L191.031 152.467Z"></path>
<path fill="#1E1E20" d="M181.85 169.727C175.952 169.727 172.853 166.589 172.693 166.422C172.558 166.28 172.562 166.057 172.704 165.922C172.846 165.787 173.069 165.791 173.204 165.929C173.25 165.979 177.935 170.688 186.627 168.351C188.212 167.926 189.488 167.28 190.84 166.599C194.063 164.972 197.397 163.287 204.926 164.957C207.011 165.422 208.635 165.174 209.745 164.227C211.337 162.869 211.476 160.418 211.479 159.649L190.918 152.801C190.733 152.74 190.63 152.538 190.694 152.354C190.755 152.169 190.957 152.067 191.145 152.13L211.944 159.056C212.082 159.102 212.178 159.227 212.185 159.372C212.192 159.517 212.376 162.918 210.21 164.766C208.919 165.869 207.089 166.167 204.773 165.652C197.493 164.035 194.418 165.589 191.159 167.234C189.836 167.904 188.464 168.596 186.807 169.039C184.981 169.529 183.325 169.727 181.846 169.727H181.85Z"></path>
<defs>
<linearGradient gradientUnits="userSpaceOnUse" y2="78.2892" x2="263.894" y1="43.5142" x1="263.894" id="paint0_linear_361_36978">
<stop stop-color="#FEFBF7"></stop>
<stop stop-color="#DEBD9D" offset="1"></stop>
</linearGradient>
<linearGradient gradientUnits="userSpaceOnUse" y2="5.51147" x2="251.456" y1="-20.714" x1="281.427" id="paint1_linear_361_36978">
<stop stop-color="#494958"></stop>
<stop stop-color="#151519" offset="1"></stop>
</linearGradient>
<linearGradient gradientUnits="userSpaceOnUse" y2="63.9185" x2="251.44" y1="27.5344" x1="251.44" id="paint2_linear_361_36978">
<stop stop-color="#FEFBF7"></stop>
<stop stop-color="#DEBD9D" offset="1"></stop>
</linearGradient>
<linearGradient gradientUnits="userSpaceOnUse" y2="96.216" x2="273.567" y1="7.60828" x1="360.976" id="paint3_linear_361_36978">
<stop stop-color="#494958"></stop>
<stop stop-color="#151519" offset="1"></stop>
</linearGradient>
<linearGradient gradientUnits="userSpaceOnUse" y2="66.439" x2="268.347" y1="43.6873" x1="291.539" id="paint4_linear_361_36978">
<stop stop-color="#494958"></stop>
<stop stop-color="#151519" offset="1"></stop>
</linearGradient>
<linearGradient gradientUnits="userSpaceOnUse" y2="7.66514" x2="82.0277" y1="-16.6972" x1="116.028" id="paint5_linear_361_36978">
<stop stop-color="#494958"></stop>
<stop stop-color="#151519" offset="1"></stop>
</linearGradient>
<linearGradient gradientUnits="userSpaceOnUse" y2="-8.55478" x2="38.9431" y1="-32.1687" x1="77.5381" id="paint6_linear_361_36978">
<stop stop-color="#494958"></stop>
<stop stop-color="#151519" offset="1"></stop>
</linearGradient>
<linearGradient gradientUnits="userSpaceOnUse" y2="82.9596" x2="94.99" y1="52.2985" x1="94.99" id="paint7_linear_361_36978">
<stop stop-color="#FEFBF7"></stop>
<stop stop-color="#DEBD9D" offset="1"></stop>
</linearGradient>
<linearGradient gradientUnits="userSpaceOnUse" y2="66.2585" x2="98.3527" y1="27.5701" x1="98.3527" id="paint8_linear_361_36978">
<stop stop-color="#FEFBF7"></stop>
<stop stop-color="#DEBD9D" offset="1"></stop>
</linearGradient>
<linearGradient gradientUnits="userSpaceOnUse" y2="106.668" x2="97.7397" y1="13.757" x1="190.992" id="paint9_linear_361_36978">
<stop stop-color="#494958"></stop>
<stop stop-color="#151519" offset="1"></stop>
</linearGradient>
<linearGradient gradientUnits="userSpaceOnUse" y2="210.47" x2="102.231" y1="248.349" x1="67.4474" id="paint10_linear_361_36978">
<stop stop-color="#494958"></stop>
<stop stop-color="#151519" offset="1"></stop>
</linearGradient>
<linearGradient gradientUnits="userSpaceOnUse" y2="200.417" x2="66.5607" y1="140.652" x1="66.5607" id="paint11_linear_361_36978">
<stop stop-color="#FEFBF7"></stop>
<stop stop-color="#DEBD9D" offset="1"></stop>
</linearGradient>
<linearGradient gradientUnits="userSpaceOnUse" y2="82.7891" x2="104.64" y1="58.7028" x1="121.69" id="paint12_linear_361_36978">
<stop stop-color="#494958"></stop>
<stop stop-color="#151519" offset="1"></stop>
</linearGradient>
<linearGradient gradientUnits="userSpaceOnUse" y2="188.675" x2="177.52" y1="148.013" x1="177.52" id="paint13_linear_361_36978">
<stop stop-color="#FEFBF7"></stop>
<stop stop-color="#DEBD9D" offset="1"></stop>
</linearGradient>
<linearGradient gradientUnits="userSpaceOnUse" y2="199.708" x2="215.973" y1="142.264" x1="215.973" id="paint14_linear_361_36978">
<stop stop-color="#FEFBF7"></stop>
<stop stop-color="#DEBD9D" offset="1"></stop>
</linearGradient>
<linearGradient gradientUnits="userSpaceOnUse" y2="178.909" x2="225.031" y1="166.995" x1="225.031" id="paint15_linear_361_36978">
<stop stop-color="#FEFBF7"></stop>
<stop stop-color="#DEBD9D" offset="1"></stop>
</linearGradient>
<linearGradient gradientUnits="userSpaceOnUse" y2="185.481" x2="221.162" y1="173.567" x1="221.162" id="paint16_linear_361_36978">
<stop stop-color="#FEFBF7"></stop>
<stop stop-color="#DEBD9D" offset="1"></stop>
</linearGradient>
<linearGradient gradientUnits="userSpaceOnUse" y2="192.052" x2="216.729" y1="180.138" x1="216.729" id="paint17_linear_361_36978">
<stop stop-color="#FEFBF7"></stop>
<stop stop-color="#DEBD9D" offset="1"></stop>
</linearGradient>
<linearGradient gradientUnits="userSpaceOnUse" y2="196.64" x2="211.958" y1="186.813" x1="211.958" id="paint18_linear_361_36978">
<stop stop-color="#FEFBF7"></stop>
<stop stop-color="#DEBD9D" offset="1"></stop>
</linearGradient>
<linearGradient gradientUnits="userSpaceOnUse" y2="169.364" x2="192.392" y1="152.467" x1="192.392" id="paint19_linear_361_36978">
<stop stop-color="#FEFBF7"></stop>
<stop stop-color="#DEBD9D" offset="1"></stop>
</linearGradient>
</defs>
</svg>
