<svg width="192" height="60" viewBox="0 0 192 60" fill="#ececee" xmlns="http://www.w3.org/2000/svg"><path d="M96.6535 5.83142H103.889C104.87 5.83142 105.753 5.97858 106.538 6.2729C107.323 6.55087 107.993 6.94329 108.549 7.45018C109.105 7.95706 109.53 8.55387 109.824 9.24061C110.119 9.92735 110.266 10.6713 110.266 11.4725C110.266 12.2737 110.119 13.0177 109.824 13.7044C109.53 14.3912 109.105 14.988 108.549 15.4949C107.993 16.0018 107.323 16.4024 106.538 16.6967C105.753 16.9746 104.87 17.1136 103.889 17.1136H98.8609V23H96.6535V5.83142ZM103.889 15.0289C105.246 15.0289 106.276 14.7019 106.979 14.0478C107.699 13.3774 108.058 12.519 108.058 11.4725C108.058 10.4261 107.699 9.57581 106.979 8.92177C106.276 8.25138 105.246 7.91618 103.889 7.91618H98.8609V15.0289H103.889ZM117.99 5.83142H125.348C126.329 5.83142 127.204 5.97041 127.972 6.24837C128.757 6.52634 129.411 6.91059 129.934 7.40112C130.474 7.8753 130.882 8.43941 131.16 9.09345C131.455 9.74749 131.602 10.4588 131.602 11.2273C131.602 12.5026 131.21 13.6063 130.425 14.5383C129.64 15.454 128.52 16.0672 127.065 16.3778L131.479 23H128.904L124.734 16.6231H120.197V23H117.99V5.83142ZM125.348 14.5383C126.705 14.5383 127.719 14.2359 128.389 13.6309C129.059 13.0095 129.395 12.2083 129.395 11.2273C129.395 10.2462 129.059 9.45318 128.389 8.84819C127.719 8.22685 126.705 7.91618 125.348 7.91618H120.197V14.5383H125.348ZM139.685 5.83142H141.893V23H139.685V5.83142ZM150.722 5.83142H154.278L159.429 16.8684H160.533L165.683 5.83142H169.24V23H167.032V8.28408L167.057 8.03881H167.008L162.004 18.8305L157.957 18.8305L152.954 8.03881H152.905L152.929 8.28408V23H150.722V5.83142ZM178.07 5.83142H190.088V7.91618H180.278V13.312H188.249V15.3968H180.278V20.9152H190.088V23H178.07V5.83142Z"></path><path d="M25.3145 23.3906H28.6971C28.8093 23.3906 28.9002 23.2975 28.9002 23.1825V6.40241C28.9002 6.28751 28.8093 6.19434 28.6971 6.19434H25.3145C25.2023 6.19434 25.1113 6.28749 25.1113 6.40241V23.1825C25.1113 23.2975 25.2023 23.3906 25.3145 23.3906Z"></path><path d="M50.9608 17.2505L45.0209 6.29861C44.986 6.23426 44.9197 6.19436 44.8479 6.19436H40.485C40.3757 6.19436 40.2871 6.2851 40.2871 6.39705V23.188C40.2871 23.2999 40.3757 23.3907 40.485 23.3907H43.6868C43.7961 23.3907 43.8847 23.2999 43.8847 23.188V17.8285C43.8847 16.2044 43.8383 14.5807 43.7455 12.9595L43.7227 12.5608C43.6975 12.119 44.2737 11.9475 44.4835 12.3344L50.4239 23.2864C50.4588 23.3507 50.525 23.3906 50.5969 23.3906H54.9593C55.0686 23.3906 55.1572 23.2999 55.1572 23.1879V6.39703C55.1572 6.2851 55.0686 6.19434 54.9593 6.19434H51.7574C51.6482 6.19434 51.5596 6.28508 51.5596 6.39703V11.7565C51.5596 13.3806 51.606 15.0043 51.6987 16.6255L51.7215 17.024C51.7468 17.4658 51.1706 17.6373 50.9608 17.2505Z"></path><path d="M71.7843 12.1099C70.1714 11.6833 68.7778 11.3154 68.7778 10.3348C68.7778 9.48941 69.5985 8.96445 70.9189 8.96445C72.8479 8.96445 73.3507 10.0315 73.4627 10.461C73.4859 10.5501 73.5666 10.6088 73.6567 10.6088H76.6956C76.8245 10.6088 76.9208 10.4902 76.8954 10.3608C76.6999 9.36822 75.5956 5.84677 70.9189 5.84677C68.1429 5.84677 65.3333 7.42377 65.3333 10.4375C65.3333 13.6286 68.2842 14.4085 70.6553 15.035C72.2686 15.4615 73.6617 15.8295 73.6617 16.8101C73.6617 18.0277 72.3339 18.2831 71.2198 18.2831C68.9688 18.2831 68.3251 16.7838 68.1758 16.2686C68.1507 16.182 68.0708 16.1248 67.9827 16.1248H64.9395C64.8102 16.1248 64.7127 16.2443 64.7399 16.3737C64.9634 17.4362 66.2455 21.4005 71.2198 21.4005C75.2868 21.4006 77.1068 19.0437 77.1068 16.7073C77.1068 13.5163 74.1558 12.7364 71.7843 12.1099Z"></path><path d="M67.045 29.5775H74.7779C74.8863 29.5775 74.9742 29.4884 74.9742 29.3784V26.6861C74.9742 26.5761 74.8863 26.487 74.7779 26.487H67.045C66.9365 26.487 66.8486 26.5761 66.8486 26.6861V29.3784C66.8486 29.4884 66.9365 29.5775 67.045 29.5775Z"></path><path d="M11.4719 6.28422L7.10246 12.7624C7.06452 12.8187 7.00204 12.8522 6.93532 12.8522H4.99204C4.87984 12.8522 4.7889 12.7591 4.7889 12.6442V6.4025C4.7889 6.2876 4.69795 6.19443 4.58575 6.19443H1.20315C1.09097 6.19443 1 6.28758 1 6.4025L1 23.1826C1 23.2975 1.09094 23.3907 1.20315 23.3907H4.58577C4.69797 23.3907 4.78892 23.2976 4.78892 23.1826V16.6953C4.78892 16.5804 4.87986 16.4872 4.99206 16.4872H7.05421C7.12126 16.4872 7.184 16.5211 7.22187 16.5778L11.7123 23.3001C11.7501 23.3568 11.8129 23.3907 11.8799 23.3907H15.8194C15.9819 23.3907 16.0787 23.2049 15.9881 23.0667L12.2475 17.358C11.946 16.8979 11.641 16.4401 11.3465 15.9752C11.0453 15.4997 10.7713 15.0657 10.7619 14.4532C10.7524 13.8339 11.0259 13.4049 11.3326 12.9303C11.6314 12.4681 11.9413 12.0139 12.2475 11.557L15.6232 6.52027C15.7157 6.38219 15.6192 6.19443 15.4557 6.19443H11.639C11.5723 6.19443 11.5098 6.228 11.4719 6.28422Z"></path><path d="M1.96 54L1.96 45.6H3.7L6.22 51H6.76L9.28 45.6H11.02V54H9.94V46.8L9.952 46.68H9.928L7.48 51.96H5.5L3.052 46.68H3.028L3.04 46.8L3.04 54H1.96ZM14.3805 54L16.5405 45.6H19.8405L22.0005 54H20.9205L20.2605 51.54H16.1205L15.4605 54H14.3805ZM16.3605 50.52H20.0205L19.0005 46.62H17.3805L16.3605 50.52ZM25.3581 54L25.3581 45.6L26.9181 45.6L31.0461 52.68H31.0701L31.0581 52.56L31.0581 45.6H32.1381V54H30.5781L26.4501 46.92H26.4261L26.4381 47.04L26.4381 53.988L25.3581 54ZM35.4934 54L37.6534 45.6H40.9534L43.1134 54H42.0334L41.3734 51.54H37.2334L36.5734 54H35.4934ZM37.4734 50.52H41.1334L40.1134 46.62H38.4934L37.4734 50.52ZM45.8167 49.8C45.8167 47.22 47.6767 45.36 50.1967 45.36C53.5567 45.36 54.3367 48.36 54.3367 48.36H53.2567C53.2567 48.36 52.5367 46.38 50.1967 46.38C48.2767 46.38 46.8967 47.76 46.8967 49.8C46.8967 51.84 48.2767 53.22 50.1967 53.22C51.9367 53.22 53.1367 52.02 53.3767 50.64H51.7567V49.62H55.4767V50.64H54.4567C53.9767 52.74 52.4767 54.24 50.1967 54.24C47.6767 54.24 45.8167 52.38 45.8167 49.8ZM58.7209 54V45.6L64.6009 45.6V46.62L59.8009 46.62V49.26L63.7009 49.26V50.28L59.8009 50.28V52.98L64.6009 52.98V54L58.7209 54ZM72.2308 45.6H73.4908L75.9508 49.68H76.0708L78.5308 45.6H79.7908L76.5508 50.94V54H75.4708V50.94L72.2308 45.6ZM82.1833 49.8C82.1833 47.22 84.0433 45.36 86.5633 45.36C89.0833 45.36 90.9433 47.22 90.9433 49.8C90.9433 52.38 89.0833 54.24 86.5633 54.24C84.0433 54.24 82.1833 52.38 82.1833 49.8ZM83.2633 49.8C83.2633 51.84 84.6433 53.22 86.5633 53.22C88.4833 53.22 89.8633 51.84 89.8633 49.8C89.8633 47.76 88.4833 46.38 86.5633 46.38C84.6433 46.38 83.2633 47.76 83.2633 49.8ZM94.547 50.82V45.6H95.627V50.82C95.627 52.32 96.527 53.22 97.847 53.22C99.167 53.22 100.067 52.32 100.067 50.82V45.6H101.147V50.82C101.147 52.92 99.827 54.24 97.847 54.24C95.867 54.24 94.547 52.92 94.547 50.82ZM105.169 54V45.6H108.769C110.689 45.6 111.829 46.74 111.829 48.24C111.829 49.476 111.025 50.46 109.609 50.76L111.769 54H110.509L108.469 50.88H106.249V54H105.169ZM106.249 49.86H108.769C110.089 49.86 110.749 49.2 110.749 48.24C110.749 47.28 110.089 46.62 108.769 46.62H106.249V49.86ZM121.067 54V45.6H124.607C126.527 45.6 127.727 46.8 127.727 48.36C127.727 49.92 126.527 51.12 124.607 51.12H122.147V54H121.067ZM122.147 50.1H124.607C125.927 50.1 126.647 49.38 126.647 48.36C126.647 47.34 125.927 46.62 124.607 46.62H122.147V50.1ZM131.267 54V45.6H134.867C136.787 45.6 137.927 46.74 137.927 48.24C137.927 49.476 137.123 50.46 135.707 50.76L137.867 54H136.607L134.567 50.88H132.347V54H131.267ZM132.347 49.86H134.867C136.187 49.86 136.847 49.2 136.847 48.24C136.847 47.28 136.187 46.62 134.867 46.62H132.347V49.86ZM141.641 54V45.6H142.721V54H141.641ZM146.801 54V45.6H148.541L151.061 51H151.601L154.121 45.6H155.861V54H154.781V46.8L154.793 46.68H154.769L152.321 51.96H150.341L147.893 46.68H147.869L147.881 46.8V54H146.801ZM159.942 54V45.6H165.822V46.62H161.022V49.26H164.922V50.28H161.022V52.98H165.822V54H159.942Z"></path></svg>